/* XPM */
static const char *xpm_file[] = {
"16 16 16 2",
"00 c black",
"01 c #848484",
"02 c #D6D6CE",
"03 c gray100",
"04 c none",
"05 c gray100",
"06 c gray100",
"07 c gray100",
"08 c gray100",
"09 c gray100",
"10 c gray100",
"11 c gray100",
"12 c gray100",
"13 c gray100",
"14 c gray100",
"15 c gray100",
"04040404040404040404040404040404",
"04040101010101010101010104040404",
"04040103030303030303030001040404",
"04040103030303030303030002010404",
"04040103030000000000030000000004",
"04040103030303030303030303030004",
"04040103030000000000000003030004",
"04040103030303030303030303030004",
"04040103030000000000000003030004",
"04040103030303030303030303030004",
"04040103030000000000000003030004",
"04040103030303030303030303030004",
"04040103030000000000000003030004",
"04040103030303030303030303030004",
"04040103030303030303030303030004",
"04040000000000000000000000000004"
};
