/* XPM */
static const char *xpm_folder[] = {
"16 16 16 2",
"00 c #A06B04",
"01 c #B17B14",
"02 c #C18C25",
"03 c #CE9831",
"04 c gray29",
"05 c #777777",
"06 c gray55",
"07 c none",
"08 c #ECB94F",
"09 c #FFE178",
"10 c #FFF388",
"11 c #FFFB98",
"12 c #CECECE",
"13 c #DADADA",
"14 c gray97",
"15 c gray100",
"07070707070707070707070707070707",
"07070303030313140707070707070707",
"07031515151502121407070707070707",
"03151111111115020202010101131407",
"03111010101010151515151501061307",
"03100902020202020202020201010113",
"03090215151515151515151509150006",
"02090311111111111111111108110005",
"02090311111111111111111108110005",
"02090211101010101010101008110005",
"02090211090909090909090908110005",
"02090211090909090909090903110005",
"13010101010101000000000000000406",
"14120605050505050505050505050612",
"07141313131313131313131313131314",
"07070707070707070707070707070707"
};
