/* XPM */
static const char *xpm_root[] = {
"16 16 16 2",
"00 c #976911",
"01 c gray42",
"02 c #C18B24",
"03 c #E3B552",
"04 c #6482B3",
"05 c #8E9CAA",
"06 c #FFEE86",
"07 c gray74",
"08 c #68BDFF",
"09 c #B9CDE6",
"10 c #D2D2D2",
"11 c #D8E9F1",
"12 c #E7F7FF",
"13 c #F3F7FB",
"14 c #F7FFFF",
"15 c none",
"15151515040404040404040811131515",
"15151515041313131313130808101315",
"15150202041309090909130808081013",
"15021313041313131313131111040111",
"02130606041209090909090912040110",
"02060606041212121212121212040110",
"02060202040707070707070707040207",
"02060213111313131313131313110001",
"02060206071109090909090911070001",
"02030206071111111111111111070001",
"02030206071111111111111111070001",
"02030206070707070707070707070001",
"02030206060303030303030303060001",
"11020202020000000000000000000101",
"13100101010101010101010101010110",
"15131110101010101010101010101113"
};
