/* XPM */
static char *xpm_toolbar_default[] = {
/* width height ncolors chars_per_pixel */
"16 15 2 1",
/* colors */
"  c #000000",
". c #C0C0C0",
/* pixels */
"................",
".    ...........",
".  .   .........",
". . ..  ........",
". .  ..   ......",
". ..  ... ......",
". ... ..........",
". ...  .........",
"......  ........",
".......  .......",
"........  ......",
".........  .....",
"..........  ....",
"................",
"................"
};
