/* XPM */
static char *xpm_toolbar_elevationedit[] = {
/* width height ncolors chars_per_pixel */
"16 15 4 1",
/* colors */
"  c #000000",
". c #00FF00",
"X c #C0C0C0",
"o c #008000",
/* pixels */
"XXXXX    XXXXXXX",
"XX    . .    XXX",
"   .  . . .o    ",
"o o  .   . .o oo",
"o . .. . .  o oo",
"   ... . ..     ",
"oo oo. .  .oo oo",
"oo oo  .. ooo oo",
"oo oo o.o ooo oo",
"                ",
"oo oo ooo ooo oo",
"oo oo ooo ooo oo",
"oo oo ooo ooo oo",
"                ",
"XXXXXXXXXXXXXXXX"
};
