P3
# Created by Paint Shop Pro 7
16 15
255
192 192 192 192 192 192 192 192 192 192 192 192 192 192 192 0 0 0 0 0 0 
0 0 0 0 0 0 192 192 192 192 192 192 192 192 192 192 192 192 192 192 192 
192 192 192 192 192 192 192 192 192 192 192 192 0 0 0 0 0 0 0 0 0 0 0 0 
0 255 0 0 0 0 0 255 0 0 0 0 0 0 0 0 0 0 0 0 0 192 192 192 192 192 192 192 192 192 
0 0 0 0 0 0 0 0 0 0 255 0 0 0 0 0 0 0 0 255 0 0 0 0 0 255 0 0 0 0 0 255 0 
0 128 0 0 0 0 0 0 0 0 0 0 0 0 0 0 128 0 0 0 0 0 128 0 0 0 0 0 0 0 0 255 0 
0 0 0 0 0 0 0 0 0 0 255 0 0 0 0 0 255 0 0 128 0 0 0 0 0 128 0 0 128 0 0 128 0 
0 0 0 0 255 0 0 0 0 0 255 0 0 255 0 0 0 0 0 255 0 0 0 0 0 255 0 0 0 0 0 0 0 
0 128 0 0 0 0 0 128 0 0 128 0 0 0 0 0 0 0 0 0 0 0 255 0 0 255 0 0 255 0 
0 0 0 0 255 0 0 0 0 0 255 0 0 255 0 0 0 0 0 0 0 0 0 0 0 0 0 0 0 0 0 128 0 
0 128 0 0 0 0 0 128 0 0 128 0 0 255 0 0 0 0 0 255 0 0 0 0 0 0 0 0 255 0 
0 128 0 0 128 0 0 0 0 0 128 0 0 128 0 0 128 0 0 128 0 0 0 0 0 128 0 0 128 0 
0 0 0 0 0 0 0 255 0 0 255 0 0 0 0 0 128 0 0 128 0 0 128 0 0 0 0 0 128 0 
0 128 0 0 128 0 0 128 0 0 0 0 0 128 0 0 128 0 0 0 0 0 128 0 0 255 0 0 128 0 
0 0 0 0 128 0 0 128 0 0 128 0 0 0 0 0 128 0 0 128 0 0 0 0 0 0 0 0 0 0 0 0 0 
0 0 0 0 0 0 0 0 0 0 0 0 0 0 0 0 0 0 0 0 0 0 0 0 0 0 0 0 0 0 0 0 0 0 0 0 
0 128 0 0 128 0 0 0 0 0 128 0 0 128 0 0 0 0 0 128 0 0 128 0 0 128 0 0 0 0 
0 128 0 0 128 0 0 128 0 0 0 0 0 128 0 0 128 0 0 128 0 0 128 0 0 0 0 0 128 0 
0 128 0 0 0 0 0 128 0 0 128 0 0 128 0 0 0 0 0 128 0 0 128 0 0 128 0 0 0 0 
0 128 0 0 128 0 0 128 0 0 128 0 0 0 0 0 128 0 0 128 0 0 0 0 0 128 0 0 128 0 
0 128 0 0 0 0 0 128 0 0 128 0 0 128 0 0 0 0 0 128 0 0 128 0 0 0 0 0 0 0 
0 0 0 0 0 0 0 0 0 0 0 0 0 0 0 0 0 0 0 0 0 0 0 0 0 0 0 0 0 0 0 0 0 0 0 0 
0 0 0 0 0 0 192 192 192 192 192 192 192 192 192 192 192 192 192 192 192 
192 192 192 192 192 192 192 192 192 192 192 192 192 192 192 192 192 192 
192 192 192 192 192 192 192 192 192 192 192 192 192 192 192 
