/* XPM */
static char *xpm_toolbar_terrainpaint[] = {
/* width height ncolors chars_per_pixel */
"16 15 6 1",
/* colors */
"  c #000000",
". c #00FF00",
"X c #C0C0C0",
"o c #FFFF00",
"O c #008000",
"+ c #808000",
/* pixels */
"XXXXXXXXXXXXXXXX",
"                ",
".. OOOOO  +++++ ",
". OOOOOO +++++ o",
". OOOOOO +++++ o",
"  OOOOO  ++++ oo",
" OOOOOO +++++ oo",
"                ",
" OOOOO +++++ ooo",
" OOOOO +++++ ooo",
"OOOOO  ++++ oooo",
"OOOOO +++++ oooo",
"OOOO  ++++  oooo",
"                ",
"XXXXXXXXXXXXXXXX"
};
